PathFileType	4	(x/y/z)	S10_SL_Cal_T01
DataRate	CameraRate	NumFrames	NumMarkers	Units	OrigDataRate	OrigDataStartFrame	OrigNumFrames
240	240	4	51	mm	240	2101	2400
Frame#	Time	Sternum			R.Acromium			L.Acromium			Top.Head			R.ASIS			L.ASIS			R.PSIS			L.PSIS			R.Great.Tro			L.Great.Tro			R.Iliac.Crest			L.Iliac.Crest			V.Sacral			R.Thigh.Upper.Post			R.Thigh.Lower.Ant			R.Thigh.Lower.Post			R.Thigh.Upper.Ant			R.Knee.Lat			R.Knee.Med			R.Shank.Upper.Post			R.Shank.Lower.Ant			R.Shank.Lower.Post			R.Shank.Upper.Ant			R.Ankle.Lat			R.Ankle.Med			R.Heel.Upper			R.Heel.Med			R.Heel.Lat			R.Toe.Lat			R.Toe.Med			R.Toe.Tip			L.Thigh.Upper.Post			L.Thigh.Lower.Ant			L.Thigh.Lower.Post			L.Thigh.Upper.Ant			L.Knee.Lat			L.Knee.Med			L.Shank.Upper.Post			L.Shank.Lower.Ant			L.Shank.Lower.Post			L.Shank.Upper.Ant			L.Ankle.Lat			L.Ankle.Med			L.Heel.Upper			L.Heel.Med			L.Heel.Lat			L.Toe.Lat			L.Toe.Med			L.Toe.Tip			Cervical.Spine			Back			
		X1	Y1	Z1	X2	Y2	Z2	X3	Y3	Z3	X4	Y4	Z4	X5	Y5	Z5	X6	Y6	Z6	X7	Y7	Z7	X8	Y8	Z8	X9	Y9	Z9	X10	Y10	Z10	X11	Y11	Z11	X12	Y12	Z12	X13	Y13	Z13	X14	Y14	Z14	X15	Y15	Z15	X16	Y16	Z16	X17	Y17	Z17	X18	Y18	Z18	X19	Y19	Z19	X20	Y20	Z20	X21	Y21	Z21	X22	Y22	Z22	X23	Y23	Z23	X24	Y24	Z24	X25	Y25	Z25	X26	Y26	Z26	X27	Y27	Z27	X28	Y28	Z28	X29	Y29	Z29	X30	Y30	Z30	X31	Y31	Z31	X32	Y32	Z32	X33	Y33	Z33	X34	Y34	Z34	X35	Y35	Z35	X36	Y36	Z36	X37	Y37	Z37	X38	Y38	Z38	X39	Y39	Z39	X40	Y40	Z40	X41	Y41	Z41	X42	Y42	Z42	X43	Y43	Z43	X44	Y44	Z44	X45	Y45	Z45	X46	Y46	Z46	X47	Y47	Z47	X48	Y48	Z48	X49	Y49	Z49	X50	Y50	Z50	X51	Y51	Z51	

2101	8.75	766.85	1306.8	330.94	616.18	1448.5	479.91	626.35	1482.7	174.93	647.38	1774.2	352.67	718.02	1007.6	436.66	723.82	1027.5	201.44	523.89	1057.2	347.23	532.35	1063.2	266.13	636.93	937.48	505.4	655.02	963.62	140.19	628.8	1099.3	482.5	661.01	1111.2	173.2	500.67	1030.8	308.99	620.82	727.85	508.95	660.78	640.63	471.43	597.84	640.98	501.48	684.84	728.87	474.15	576.37	517.23	464.44	566.7	515.16	337.02	509.39	295.37	475.66	580.95	237.28	466.42	514.96	221.61	473.57	579.9	313.91	469.1	542.69	108.14	456.08	566.29	113.31	380.91	493.96	63.97	406.18	507.75	37.061	380.43	494.49	39.888	440.71	659.63	39.291	508.65	701.98	44.731	404.43	754.7	61.098	454.36	569.63	709.52	118.74	625.85	613.77	133.57	549.72	616.12	129	647.4	700.29	126.01	572.09	522.96	131.12	562.71	505.39	258.38	513.9	308.27	116.09	586.87	225.92	130.54	522.89	231.24	123.1	578.23	302.16	123.21	564.35	103.71	135.38	578.91	111.25	220.57	500.22	76.63	176.09	511.71	45.723	209.74	508.16	46.313	145.31	684.55	41.455	109.09	711.32	47.527	215.57	766.87	60.53	169.63	551.08	1506.7	335.69	490.16	1291.3	314.9
2102	8.7542	766.82	1306.8	330.94	616.15	1448.5	479.91	626.31	1482.7	174.93	647.36	1774.2	352.66	718.02	1007.6	436.67	723.82	1027.5	201.45	523.89	1057.2	347.24	532.35	1063.2	266.13	636.93	937.48	505.4	655.03	963.62	140.2	628.79	1099.3	482.51	661	1111.2	173.2	500.67	1030.8	309	620.82	727.85	508.96	660.79	640.63	471.44	597.84	640.98	501.49	684.84	728.87	474.16	576.38	517.22	464.44	566.72	515.16	337.02	509.39	295.37	475.66	580.95	237.28	466.43	514.96	221.61	473.57	579.9	313.91	469.1	542.69	108.14	456.08	566.29	113.31	380.91	493.96	63.97	406.18	507.75	37.061	380.43	494.49	39.888	440.71	659.63	39.291	508.65	701.98	44.731	404.43	754.7	61.099	454.36	569.64	709.52	118.75	625.86	613.78	133.58	549.74	616.12	129	647.42	700.29	126.02	572.1	522.97	131.12	562.72	505.39	258.39	513.91	308.27	116.1	586.88	225.92	130.55	522.89	231.24	123.1	578.23	302.16	123.22	564.35	103.71	135.38	578.91	111.25	220.57	500.22	76.631	176.1	511.71	45.724	209.74	508.16	46.314	145.31	684.55	41.456	109.09	711.32	47.527	215.57	766.87	60.531	169.63	551.05	1506.7	335.69	490.14	1291.3	314.9
2103	8.7583	766.78	1306.8	330.93	616.12	1448.5	479.91	626.27	1482.7	174.93	647.34	1774.2	352.66	718.02	1007.6	436.68	723.83	1027.5	201.45	523.89	1057.2	347.24	532.35	1063.2	266.13	636.92	937.49	505.41	655.03	963.61	140.21	628.77	1099.3	482.52	661	1111.2	173.19	500.67	1030.8	309	620.83	727.85	508.96	660.79	640.64	471.45	597.85	640.98	501.49	684.85	728.88	474.18	576.39	517.22	464.44	566.73	515.16	337.03	509.4	295.37	475.66	580.95	237.28	466.43	514.96	221.61	473.57	579.91	313.91	469.1	542.7	108.14	456.08	566.29	113.31	380.91	493.96	63.97	406.18	507.75	37.061	380.43	494.49	39.888	440.71	659.63	39.291	508.65	701.98	44.732	404.43	754.7	61.099	454.36	569.65	709.53	118.76	625.87	613.78	133.58	549.75	616.12	129.01	647.43	700.29	126.03	572.11	522.97	131.12	562.73	505.39	258.39	513.91	308.27	116.1	586.88	225.92	130.55	522.9	231.24	123.1	578.24	302.16	123.22	564.35	103.72	135.38	578.91	111.25	220.57	500.22	76.631	176.1	511.71	45.724	209.74	508.16	46.315	145.31	684.55	41.457	109.09	711.31	47.526	215.57	766.87	60.531	169.63	551.02	1506.7	335.69	490.13	1291.3	314.91
2104	8.7625	766.75	1306.8	330.93	616.09	1448.4	479.9	626.23	1482.7	174.93	647.32	1774.2	352.65	718.02	1007.6	436.68	723.83	1027.5	201.46	523.89	1057.1	347.24	532.35	1063.2	266.13	636.92	937.49	505.41	655.04	963.61	140.21	628.76	1099.3	482.52	660.99	1111.2	173.19	500.67	1030.8	309	620.83	727.85	508.97	660.8	640.64	471.46	597.85	640.98	501.5	684.85	728.88	474.19	576.4	517.22	464.45	566.75	515.16	337.03	509.4	295.38	475.66	580.96	237.28	466.44	514.96	221.61	473.57	579.91	313.9	469.1	542.7	108.14	456.08	566.29	113.32	380.91	493.96	63.971	406.18	507.75	37.062	380.43	494.49	39.888	440.71	659.63	39.291	508.65	701.98	44.733	404.43	754.7	61.1	454.36	569.66	709.53	118.76	625.88	613.78	133.59	549.75	616.13	129.02	647.43	700.29	126.03	572.12	522.97	131.13	562.74	505.39	258.4	513.92	308.27	116.1	586.88	225.92	130.55	522.9	231.24	123.11	578.24	302.16	123.22	564.35	103.72	135.38	578.91	111.25	220.57	500.22	76.632	176.1	511.72	45.725	209.74	508.16	46.316	145.31	684.55	41.458	109.09	711.31	47.526	215.57	766.87	60.532	169.64	550.99	1506.7	335.69	490.12	1291.3	314.92
